<mxfile host="app.diagrams.net" modified="2023-08-01T12:40:40.742Z" agent="5.0 (Macintosh; Intel Mac OS X 10_15_7) AppleWebKit/537.36 (KHTML, like Gecko) Chrome/102.0.0.0 Safari/537.36" etag="bEKG40sLX36jpQ0mlotQ" version="16.5.6" type="github">
  <diagram id="C5RBs43oDa-KdzZeNtuy" name="Page-1">
    <mxGraphModel dx="1541" dy="661" grid="1" gridSize="10" guides="1" tooltips="1" connect="1" arrows="1" fold="1" page="1" pageScale="1" pageWidth="827" pageHeight="1169" math="0" shadow="0">
      <root>
        <mxCell id="WIyWlLk6GJQsqaUBKTNV-0" />
        <mxCell id="WIyWlLk6GJQsqaUBKTNV-1" parent="WIyWlLk6GJQsqaUBKTNV-0" />
        <mxCell id="u1h10SWDGsDjQfycaEmK-0" value="Duck" style="swimlane;fontStyle=1;align=center;verticalAlign=top;childLayout=stackLayout;horizontal=1;startSize=26;horizontalStack=0;resizeParent=1;resizeParentMax=0;resizeLast=0;collapsible=1;marginBottom=0;" vertex="1" parent="WIyWlLk6GJQsqaUBKTNV-1">
          <mxGeometry x="170" y="170" width="190" height="242" as="geometry" />
        </mxCell>
        <mxCell id="u1h10SWDGsDjQfycaEmK-1" value="FlyBehavior flyBehavior" style="text;strokeColor=none;fillColor=none;align=left;verticalAlign=top;spacingLeft=4;spacingRight=4;overflow=hidden;rotatable=0;points=[[0,0.5],[1,0.5]];portConstraint=eastwest;" vertex="1" parent="u1h10SWDGsDjQfycaEmK-0">
          <mxGeometry y="26" width="190" height="26" as="geometry" />
        </mxCell>
        <mxCell id="u1h10SWDGsDjQfycaEmK-4" value="QuackBehavior quackBehavior" style="text;strokeColor=none;fillColor=none;align=left;verticalAlign=top;spacingLeft=4;spacingRight=4;overflow=hidden;rotatable=0;points=[[0,0.5],[1,0.5]];portConstraint=eastwest;" vertex="1" parent="u1h10SWDGsDjQfycaEmK-0">
          <mxGeometry y="52" width="190" height="26" as="geometry" />
        </mxCell>
        <mxCell id="u1h10SWDGsDjQfycaEmK-2" value="" style="line;strokeWidth=1;fillColor=none;align=left;verticalAlign=middle;spacingTop=-1;spacingLeft=3;spacingRight=3;rotatable=0;labelPosition=right;points=[];portConstraint=eastwest;" vertex="1" parent="u1h10SWDGsDjQfycaEmK-0">
          <mxGeometry y="78" width="190" height="8" as="geometry" />
        </mxCell>
        <mxCell id="u1h10SWDGsDjQfycaEmK-3" value="swim()" style="text;strokeColor=none;fillColor=none;align=left;verticalAlign=top;spacingLeft=4;spacingRight=4;overflow=hidden;rotatable=0;points=[[0,0.5],[1,0.5]];portConstraint=eastwest;" vertex="1" parent="u1h10SWDGsDjQfycaEmK-0">
          <mxGeometry y="86" width="190" height="26" as="geometry" />
        </mxCell>
        <mxCell id="u1h10SWDGsDjQfycaEmK-6" value="display()" style="text;strokeColor=none;fillColor=none;align=left;verticalAlign=top;spacingLeft=4;spacingRight=4;overflow=hidden;rotatable=0;points=[[0,0.5],[1,0.5]];portConstraint=eastwest;" vertex="1" parent="u1h10SWDGsDjQfycaEmK-0">
          <mxGeometry y="112" width="190" height="26" as="geometry" />
        </mxCell>
        <mxCell id="u1h10SWDGsDjQfycaEmK-7" value="performQuack()" style="text;strokeColor=none;fillColor=none;align=left;verticalAlign=top;spacingLeft=4;spacingRight=4;overflow=hidden;rotatable=0;points=[[0,0.5],[1,0.5]];portConstraint=eastwest;" vertex="1" parent="u1h10SWDGsDjQfycaEmK-0">
          <mxGeometry y="138" width="190" height="26" as="geometry" />
        </mxCell>
        <mxCell id="u1h10SWDGsDjQfycaEmK-8" value="performFly()" style="text;strokeColor=none;fillColor=none;align=left;verticalAlign=top;spacingLeft=4;spacingRight=4;overflow=hidden;rotatable=0;points=[[0,0.5],[1,0.5]];portConstraint=eastwest;" vertex="1" parent="u1h10SWDGsDjQfycaEmK-0">
          <mxGeometry y="164" width="190" height="26" as="geometry" />
        </mxCell>
        <mxCell id="u1h10SWDGsDjQfycaEmK-9" value="setFlyBehavior" style="text;strokeColor=none;fillColor=none;align=left;verticalAlign=top;spacingLeft=4;spacingRight=4;overflow=hidden;rotatable=0;points=[[0,0.5],[1,0.5]];portConstraint=eastwest;" vertex="1" parent="u1h10SWDGsDjQfycaEmK-0">
          <mxGeometry y="190" width="190" height="26" as="geometry" />
        </mxCell>
        <mxCell id="u1h10SWDGsDjQfycaEmK-10" value="setQuackBehavior" style="text;strokeColor=none;fillColor=none;align=left;verticalAlign=top;spacingLeft=4;spacingRight=4;overflow=hidden;rotatable=0;points=[[0,0.5],[1,0.5]];portConstraint=eastwest;" vertex="1" parent="u1h10SWDGsDjQfycaEmK-0">
          <mxGeometry y="216" width="190" height="26" as="geometry" />
        </mxCell>
        <mxCell id="u1h10SWDGsDjQfycaEmK-11" value="GreenDuck" style="swimlane;fontStyle=0;childLayout=stackLayout;horizontal=1;startSize=26;fillColor=none;horizontalStack=0;resizeParent=1;resizeParentMax=0;resizeLast=0;collapsible=1;marginBottom=0;" vertex="1" parent="WIyWlLk6GJQsqaUBKTNV-1">
          <mxGeometry x="33" y="475" width="80" height="76" as="geometry" />
        </mxCell>
        <mxCell id="u1h10SWDGsDjQfycaEmK-12" value="display {&#xa;    绿头鸭&#xa;}" style="text;strokeColor=none;fillColor=none;align=left;verticalAlign=top;spacingLeft=4;spacingRight=4;overflow=hidden;rotatable=0;points=[[0,0.5],[1,0.5]];portConstraint=eastwest;" vertex="1" parent="u1h10SWDGsDjQfycaEmK-11">
          <mxGeometry y="26" width="80" height="50" as="geometry" />
        </mxCell>
        <mxCell id="u1h10SWDGsDjQfycaEmK-15" value="RedHeadDuck" style="swimlane;fontStyle=0;childLayout=stackLayout;horizontal=1;startSize=26;fillColor=none;horizontalStack=0;resizeParent=1;resizeParentMax=0;resizeLast=0;collapsible=1;marginBottom=0;" vertex="1" parent="WIyWlLk6GJQsqaUBKTNV-1">
          <mxGeometry x="223" y="475" width="100" height="76" as="geometry" />
        </mxCell>
        <mxCell id="u1h10SWDGsDjQfycaEmK-16" value="display {&#xa;     红头鸭&#xa;}" style="text;strokeColor=none;fillColor=none;align=left;verticalAlign=top;spacingLeft=4;spacingRight=4;overflow=hidden;rotatable=0;points=[[0,0.5],[1,0.5]];portConstraint=eastwest;" vertex="1" parent="u1h10SWDGsDjQfycaEmK-15">
          <mxGeometry y="26" width="100" height="50" as="geometry" />
        </mxCell>
        <mxCell id="u1h10SWDGsDjQfycaEmK-17" value="RubberDuck" style="swimlane;fontStyle=0;childLayout=stackLayout;horizontal=1;startSize=26;fillColor=none;horizontalStack=0;resizeParent=1;resizeParentMax=0;resizeLast=0;collapsible=1;marginBottom=0;" vertex="1" parent="WIyWlLk6GJQsqaUBKTNV-1">
          <mxGeometry x="123" y="475" width="90" height="76" as="geometry" />
        </mxCell>
        <mxCell id="u1h10SWDGsDjQfycaEmK-18" value="display {&#xa;     橡皮鸭  &#xa;}" style="text;strokeColor=none;fillColor=none;align=left;verticalAlign=top;spacingLeft=4;spacingRight=4;overflow=hidden;rotatable=0;points=[[0,0.5],[1,0.5]];portConstraint=eastwest;" vertex="1" parent="u1h10SWDGsDjQfycaEmK-17">
          <mxGeometry y="26" width="90" height="50" as="geometry" />
        </mxCell>
        <mxCell id="u1h10SWDGsDjQfycaEmK-19" value="DecoyDuck" style="swimlane;fontStyle=0;childLayout=stackLayout;horizontal=1;startSize=26;fillColor=none;horizontalStack=0;resizeParent=1;resizeParentMax=0;resizeLast=0;collapsible=1;marginBottom=0;" vertex="1" parent="WIyWlLk6GJQsqaUBKTNV-1">
          <mxGeometry x="333" y="475" width="90" height="76" as="geometry" />
        </mxCell>
        <mxCell id="u1h10SWDGsDjQfycaEmK-20" value="display {&#xa;    诱饵鸭&#xa;}" style="text;strokeColor=none;fillColor=none;align=left;verticalAlign=top;spacingLeft=4;spacingRight=4;overflow=hidden;rotatable=0;points=[[0,0.5],[1,0.5]];portConstraint=eastwest;" vertex="1" parent="u1h10SWDGsDjQfycaEmK-19">
          <mxGeometry y="26" width="90" height="50" as="geometry" />
        </mxCell>
        <mxCell id="u1h10SWDGsDjQfycaEmK-21" value="" style="endArrow=classic;html=1;rounded=0;exitX=0.5;exitY=0;exitDx=0;exitDy=0;entryX=0.214;entryY=1.064;entryDx=0;entryDy=0;entryPerimeter=0;" edge="1" parent="WIyWlLk6GJQsqaUBKTNV-1" source="u1h10SWDGsDjQfycaEmK-11" target="u1h10SWDGsDjQfycaEmK-10">
          <mxGeometry width="50" height="50" relative="1" as="geometry">
            <mxPoint x="50" y="490" as="sourcePoint" />
            <mxPoint x="100" y="440" as="targetPoint" />
          </mxGeometry>
        </mxCell>
        <mxCell id="u1h10SWDGsDjQfycaEmK-22" value="" style="endArrow=classic;html=1;rounded=0;exitX=0.5;exitY=0;exitDx=0;exitDy=0;entryX=0.297;entryY=1.032;entryDx=0;entryDy=0;entryPerimeter=0;" edge="1" parent="WIyWlLk6GJQsqaUBKTNV-1" source="u1h10SWDGsDjQfycaEmK-17" target="u1h10SWDGsDjQfycaEmK-10">
          <mxGeometry width="50" height="50" relative="1" as="geometry">
            <mxPoint x="130" y="500" as="sourcePoint" />
            <mxPoint x="180" y="450" as="targetPoint" />
          </mxGeometry>
        </mxCell>
        <mxCell id="u1h10SWDGsDjQfycaEmK-23" value="" style="endArrow=classic;html=1;rounded=0;entryX=0.42;entryY=1.032;entryDx=0;entryDy=0;entryPerimeter=0;" edge="1" parent="WIyWlLk6GJQsqaUBKTNV-1" source="u1h10SWDGsDjQfycaEmK-15" target="u1h10SWDGsDjQfycaEmK-10">
          <mxGeometry width="50" height="50" relative="1" as="geometry">
            <mxPoint x="145" y="485" as="sourcePoint" />
            <mxPoint x="236.42999999999984" y="422.832" as="targetPoint" />
          </mxGeometry>
        </mxCell>
        <mxCell id="u1h10SWDGsDjQfycaEmK-24" value="" style="endArrow=classic;html=1;rounded=0;entryX=0.504;entryY=1.064;entryDx=0;entryDy=0;entryPerimeter=0;exitX=0.5;exitY=0;exitDx=0;exitDy=0;" edge="1" parent="WIyWlLk6GJQsqaUBKTNV-1" source="u1h10SWDGsDjQfycaEmK-19" target="u1h10SWDGsDjQfycaEmK-10">
          <mxGeometry width="50" height="50" relative="1" as="geometry">
            <mxPoint x="252.8899373922511" y="485" as="sourcePoint" />
            <mxPoint x="259.79999999999995" y="422.832" as="targetPoint" />
          </mxGeometry>
        </mxCell>
        <mxCell id="u1h10SWDGsDjQfycaEmK-36" value="«interface»&lt;br&gt;&lt;b&gt;FlyBehavior&lt;/b&gt;" style="html=1;" vertex="1" parent="WIyWlLk6GJQsqaUBKTNV-1">
          <mxGeometry x="556" y="109" width="130" height="30" as="geometry" />
        </mxCell>
        <mxCell id="u1h10SWDGsDjQfycaEmK-37" value="&amp;nbsp; fly()" style="html=1;align=left;" vertex="1" parent="WIyWlLk6GJQsqaUBKTNV-1">
          <mxGeometry x="556" y="139" width="130" height="30" as="geometry" />
        </mxCell>
        <mxCell id="u1h10SWDGsDjQfycaEmK-38" style="edgeStyle=orthogonalEdgeStyle;rounded=0;orthogonalLoop=1;jettySize=auto;html=1;exitX=0.5;exitY=1;exitDx=0;exitDy=0;" edge="1" parent="WIyWlLk6GJQsqaUBKTNV-1" source="u1h10SWDGsDjQfycaEmK-36" target="u1h10SWDGsDjQfycaEmK-36">
          <mxGeometry relative="1" as="geometry" />
        </mxCell>
        <mxCell id="u1h10SWDGsDjQfycaEmK-40" value="FlyNoWay" style="swimlane;fontStyle=0;childLayout=stackLayout;horizontal=1;startSize=26;fillColor=none;horizontalStack=0;resizeParent=1;resizeParentMax=0;resizeLast=0;collapsible=1;marginBottom=0;" vertex="1" parent="WIyWlLk6GJQsqaUBKTNV-1">
          <mxGeometry x="508" y="209" width="90" height="76" as="geometry" />
        </mxCell>
        <mxCell id="u1h10SWDGsDjQfycaEmK-41" value="fly {&#xa;   无翅膀&#xa;}" style="text;strokeColor=none;fillColor=none;align=left;verticalAlign=top;spacingLeft=4;spacingRight=4;overflow=hidden;rotatable=0;points=[[0,0.5],[1,0.5]];portConstraint=eastwest;" vertex="1" parent="u1h10SWDGsDjQfycaEmK-40">
          <mxGeometry y="26" width="90" height="50" as="geometry" />
        </mxCell>
        <mxCell id="u1h10SWDGsDjQfycaEmK-42" value="FlyWithWings" style="swimlane;fontStyle=0;childLayout=stackLayout;horizontal=1;startSize=26;fillColor=none;horizontalStack=0;resizeParent=1;resizeParentMax=0;resizeLast=0;collapsible=1;marginBottom=0;" vertex="1" parent="WIyWlLk6GJQsqaUBKTNV-1">
          <mxGeometry x="630" y="209" width="110" height="76" as="geometry" />
        </mxCell>
        <mxCell id="u1h10SWDGsDjQfycaEmK-43" value="fly {&#xa;   有翅膀，可飞&#xa;}" style="text;strokeColor=none;fillColor=none;align=left;verticalAlign=top;spacingLeft=4;spacingRight=4;overflow=hidden;rotatable=0;points=[[0,0.5],[1,0.5]];portConstraint=eastwest;" vertex="1" parent="u1h10SWDGsDjQfycaEmK-42">
          <mxGeometry y="26" width="110" height="50" as="geometry" />
        </mxCell>
        <mxCell id="u1h10SWDGsDjQfycaEmK-44" value="" style="endArrow=classic;html=1;sketch=0;rounded=0;dashed=1;exitX=0.5;exitY=0;exitDx=0;exitDy=0;entryX=0.25;entryY=1;entryDx=0;entryDy=0;" edge="1" parent="WIyWlLk6GJQsqaUBKTNV-1" source="u1h10SWDGsDjQfycaEmK-40" target="u1h10SWDGsDjQfycaEmK-37">
          <mxGeometry width="50" height="50" relative="1" as="geometry">
            <mxPoint x="498" y="219" as="sourcePoint" />
            <mxPoint x="548" y="169" as="targetPoint" />
          </mxGeometry>
        </mxCell>
        <mxCell id="u1h10SWDGsDjQfycaEmK-45" value="" style="endArrow=classic;html=1;sketch=0;rounded=0;dashed=1;exitX=0.5;exitY=0;exitDx=0;exitDy=0;entryX=0.558;entryY=1.078;entryDx=0;entryDy=0;entryPerimeter=0;" edge="1" parent="WIyWlLk6GJQsqaUBKTNV-1" source="u1h10SWDGsDjQfycaEmK-42" target="u1h10SWDGsDjQfycaEmK-37">
          <mxGeometry width="50" height="50" relative="1" as="geometry">
            <mxPoint x="513" y="239" as="sourcePoint" />
            <mxPoint x="558" y="179" as="targetPoint" />
          </mxGeometry>
        </mxCell>
        <mxCell id="u1h10SWDGsDjQfycaEmK-46" value="«interface»&lt;br&gt;&lt;b&gt;&amp;nbsp;QuackBehavior&lt;/b&gt;" style="html=1;" vertex="1" parent="WIyWlLk6GJQsqaUBKTNV-1">
          <mxGeometry x="522" y="310" width="130" height="30" as="geometry" />
        </mxCell>
        <mxCell id="u1h10SWDGsDjQfycaEmK-47" value="&amp;nbsp; quack()" style="html=1;align=left;" vertex="1" parent="WIyWlLk6GJQsqaUBKTNV-1">
          <mxGeometry x="522" y="340" width="130" height="30" as="geometry" />
        </mxCell>
        <mxCell id="u1h10SWDGsDjQfycaEmK-48" style="edgeStyle=orthogonalEdgeStyle;rounded=0;orthogonalLoop=1;jettySize=auto;html=1;exitX=0.5;exitY=1;exitDx=0;exitDy=0;" edge="1" parent="WIyWlLk6GJQsqaUBKTNV-1" source="u1h10SWDGsDjQfycaEmK-46" target="u1h10SWDGsDjQfycaEmK-46">
          <mxGeometry relative="1" as="geometry" />
        </mxCell>
        <mxCell id="u1h10SWDGsDjQfycaEmK-49" value="MuteQuack" style="swimlane;fontStyle=0;childLayout=stackLayout;horizontal=1;startSize=26;fillColor=none;horizontalStack=0;resizeParent=1;resizeParentMax=0;resizeLast=0;collapsible=1;marginBottom=0;" vertex="1" parent="WIyWlLk6GJQsqaUBKTNV-1">
          <mxGeometry x="438" y="400" width="90" height="80" as="geometry" />
        </mxCell>
        <mxCell id="u1h10SWDGsDjQfycaEmK-50" value="quack{&#xa;      无声----&#xa;}" style="text;strokeColor=none;fillColor=none;align=left;verticalAlign=top;spacingLeft=4;spacingRight=4;overflow=hidden;rotatable=0;points=[[0,0.5],[1,0.5]];portConstraint=eastwest;" vertex="1" parent="u1h10SWDGsDjQfycaEmK-49">
          <mxGeometry y="26" width="90" height="54" as="geometry" />
        </mxCell>
        <mxCell id="u1h10SWDGsDjQfycaEmK-51" value="Quack" style="swimlane;fontStyle=0;childLayout=stackLayout;horizontal=1;startSize=26;fillColor=none;horizontalStack=0;resizeParent=1;resizeParentMax=0;resizeLast=0;collapsible=1;marginBottom=0;" vertex="1" parent="WIyWlLk6GJQsqaUBKTNV-1">
          <mxGeometry x="570" y="400" width="90" height="76" as="geometry" />
        </mxCell>
        <mxCell id="u1h10SWDGsDjQfycaEmK-52" value="quack{&#xa;       呱呱呱&#xa;}" style="text;strokeColor=none;fillColor=none;align=left;verticalAlign=top;spacingLeft=4;spacingRight=4;overflow=hidden;rotatable=0;points=[[0,0.5],[1,0.5]];portConstraint=eastwest;" vertex="1" parent="u1h10SWDGsDjQfycaEmK-51">
          <mxGeometry y="26" width="90" height="50" as="geometry" />
        </mxCell>
        <mxCell id="u1h10SWDGsDjQfycaEmK-53" value="" style="endArrow=classic;html=1;sketch=0;rounded=0;dashed=1;exitX=0.5;exitY=0;exitDx=0;exitDy=0;" edge="1" parent="WIyWlLk6GJQsqaUBKTNV-1" source="u1h10SWDGsDjQfycaEmK-49">
          <mxGeometry width="50" height="50" relative="1" as="geometry">
            <mxPoint x="498" y="420" as="sourcePoint" />
            <mxPoint x="548" y="370" as="targetPoint" />
          </mxGeometry>
        </mxCell>
        <mxCell id="u1h10SWDGsDjQfycaEmK-54" value="" style="endArrow=classic;html=1;sketch=0;rounded=0;dashed=1;exitX=0.5;exitY=0;exitDx=0;exitDy=0;entryX=0.558;entryY=1.078;entryDx=0;entryDy=0;entryPerimeter=0;" edge="1" parent="WIyWlLk6GJQsqaUBKTNV-1" source="u1h10SWDGsDjQfycaEmK-51" target="u1h10SWDGsDjQfycaEmK-47">
          <mxGeometry width="50" height="50" relative="1" as="geometry">
            <mxPoint x="513" y="440" as="sourcePoint" />
            <mxPoint x="558" y="380" as="targetPoint" />
          </mxGeometry>
        </mxCell>
        <mxCell id="u1h10SWDGsDjQfycaEmK-55" value="" style="endArrow=classic;html=1;rounded=0;sketch=0;exitX=1;exitY=0.5;exitDx=0;exitDy=0;entryX=0;entryY=0.5;entryDx=0;entryDy=0;" edge="1" parent="WIyWlLk6GJQsqaUBKTNV-1" source="u1h10SWDGsDjQfycaEmK-4" target="u1h10SWDGsDjQfycaEmK-46">
          <mxGeometry width="50" height="50" relative="1" as="geometry">
            <mxPoint x="360" y="280" as="sourcePoint" />
            <mxPoint x="480" y="330" as="targetPoint" />
          </mxGeometry>
        </mxCell>
        <mxCell id="u1h10SWDGsDjQfycaEmK-56" value="" style="endArrow=classic;html=1;rounded=0;sketch=0;exitX=1.013;exitY=0.782;exitDx=0;exitDy=0;exitPerimeter=0;entryX=0;entryY=0.75;entryDx=0;entryDy=0;" edge="1" parent="WIyWlLk6GJQsqaUBKTNV-1" source="u1h10SWDGsDjQfycaEmK-1" target="u1h10SWDGsDjQfycaEmK-36">
          <mxGeometry width="50" height="50" relative="1" as="geometry">
            <mxPoint x="370" y="245" as="sourcePoint" />
            <mxPoint x="490" y="340" as="targetPoint" />
          </mxGeometry>
        </mxCell>
        <mxCell id="u1h10SWDGsDjQfycaEmK-58" value="封装呱呱叫行为" style="text;html=1;strokeColor=none;fillColor=none;align=center;verticalAlign=middle;whiteSpace=wrap;rounded=0;dashed=1;" vertex="1" parent="WIyWlLk6GJQsqaUBKTNV-1">
          <mxGeometry x="686" y="310" width="60" height="30" as="geometry" />
        </mxCell>
        <mxCell id="u1h10SWDGsDjQfycaEmK-60" value="Squeak" style="swimlane;fontStyle=0;childLayout=stackLayout;horizontal=1;startSize=26;fillColor=none;horizontalStack=0;resizeParent=1;resizeParentMax=0;resizeLast=0;collapsible=1;marginBottom=0;" vertex="1" parent="WIyWlLk6GJQsqaUBKTNV-1">
          <mxGeometry x="700" y="396" width="90" height="80" as="geometry" />
        </mxCell>
        <mxCell id="u1h10SWDGsDjQfycaEmK-61" value="quack {&#xa;       吱吱吱&#xa;}" style="text;strokeColor=none;fillColor=none;align=left;verticalAlign=top;spacingLeft=4;spacingRight=4;overflow=hidden;rotatable=0;points=[[0,0.5],[1,0.5]];portConstraint=eastwest;" vertex="1" parent="u1h10SWDGsDjQfycaEmK-60">
          <mxGeometry y="26" width="90" height="54" as="geometry" />
        </mxCell>
        <mxCell id="u1h10SWDGsDjQfycaEmK-63" value="封装飞行行为" style="text;html=1;strokeColor=none;fillColor=none;align=center;verticalAlign=middle;whiteSpace=wrap;rounded=0;dashed=1;" vertex="1" parent="WIyWlLk6GJQsqaUBKTNV-1">
          <mxGeometry x="700" y="130" width="60" height="30" as="geometry" />
        </mxCell>
        <mxCell id="u1h10SWDGsDjQfycaEmK-67" value="" style="endArrow=classic;html=1;sketch=0;rounded=0;dashed=1;exitX=0.5;exitY=0;exitDx=0;exitDy=0;entryX=0.558;entryY=1.078;entryDx=0;entryDy=0;entryPerimeter=0;" edge="1" parent="WIyWlLk6GJQsqaUBKTNV-1" source="u1h10SWDGsDjQfycaEmK-60">
          <mxGeometry width="50" height="50" relative="1" as="geometry">
            <mxPoint x="636.23" y="397.66" as="sourcePoint" />
            <mxPoint x="625.7700000000002" y="370.00000000000006" as="targetPoint" />
          </mxGeometry>
        </mxCell>
      </root>
    </mxGraphModel>
  </diagram>
</mxfile>
